<svg width="27" height="27" viewBox="0 0 52 52" fill="none" xmlns="http://www.w3.org/2000/svg">
<path d="M12.0213 0.183015C12.5346 0.0193636 13.0918 0.0663078 13.5705 0.31352C14.0492 0.560733 14.41 0.987963 14.5736 1.50123L16.6305 7.95209C16.7941 8.46535 16.7472 9.0226 16.5 9.50125C16.2528 9.9799 15.8255 10.3407 15.3123 10.5044C14.799 10.668 14.2417 10.6211 13.7631 10.3739C13.2844 10.1267 12.9236 9.69945 12.76 9.18619L10.7031 2.73532C10.5395 2.22206 10.5864 1.66481 10.8336 1.18616C11.0808 0.707507 11.5081 0.346666 12.0213 0.183015ZM1.30806 9.19895C1.55537 8.72084 1.98234 8.36045 2.49519 8.19693C3.00804 8.03341 3.56482 8.08014 4.04323 8.32686L9.99862 11.4027C10.2452 11.5192 10.4659 11.6843 10.6473 11.8879C10.8288 12.0916 10.9674 12.3297 11.0548 12.5881C11.1423 12.8465 11.1768 13.1198 11.1563 13.3918C11.1358 13.6639 11.0607 13.9289 10.9355 14.1713C10.8103 14.4137 10.6376 14.6283 10.4277 14.8025C10.2177 14.9767 9.97487 15.1068 9.71356 15.185C9.45225 15.2633 9.17785 15.2881 8.90673 15.2581C8.63562 15.228 8.37334 15.1436 8.13554 15.0099L2.18016 11.9341C1.70205 11.6868 1.34166 11.2598 1.17814 10.747C1.01462 10.2341 1.06135 9.67737 1.30806 9.19895V9.19895ZM25.9762 1.33364C26.4543 1.58095 26.8147 2.00792 26.9782 2.52077C27.1417 3.03361 27.095 3.59039 26.8483 4.06881L23.7724 10.0242C23.6559 10.2708 23.4909 10.4914 23.2872 10.6729C23.0835 10.8544 22.8454 10.993 22.587 11.0804C22.3286 11.1678 22.0553 11.2023 21.7833 11.1818C21.5113 11.1613 21.2462 11.0862 21.0038 10.9611C20.7614 10.8359 20.5468 10.6632 20.3726 10.4533C20.1984 10.2433 20.0683 10.0004 19.9901 9.73913C19.9118 9.47782 19.887 9.20343 19.9171 8.93231C19.9471 8.66119 20.0315 8.39891 20.1652 8.16112L23.241 2.20574C23.4883 1.72763 23.9153 1.36723 24.4281 1.20371C24.941 1.0402 25.4978 1.08693 25.9762 1.33364V1.33364ZM0.157439 23.1538C-0.00621275 22.6405 0.0407315 22.0833 0.287944 21.6046C0.535156 21.126 0.962387 20.7651 1.47565 20.6015L7.92651 18.5446C8.43978 18.381 8.99703 18.4279 9.47568 18.6752C9.95433 18.9224 10.3152 19.3496 10.4788 19.8629C10.6425 20.3761 10.5955 20.9334 10.3483 21.412C10.1011 21.8907 9.67387 22.2515 9.16061 22.4152L2.70975 24.472C2.19648 24.6356 1.63923 24.5887 1.16058 24.3415C0.681931 24.0943 0.32109 23.667 0.157439 23.1538ZM16.2459 20.1191C15.3186 17.2111 18.2296 14.5546 21.0397 15.7451L48.8385 27.4966C51.8283 28.7606 51.7184 33.0341 48.67 34.1453L38.8874 37.6994C37.8349 38.0805 36.9851 38.8745 36.5255 39.8937L32.1845 49.5841C30.8451 52.5781 26.5168 52.3321 25.5205 49.2073L16.2467 20.1217L16.2459 20.1191Z" fill="#383A39"/>
</svg>
