<svg width="17" height="32" viewBox="0 0 17 32" fill="none" xmlns="http://www.w3.org/2000/svg">
<path d="M8.24635 12.7836C8.73437 9.71599 12.5688 6.43924 15.5668 6.36952C15.7759 6.36952 15.9851 6.2998 16.1245 6.16036C16.264 6.09065 16.4034 6.02093 16.4732 5.81177C17.519 3.85966 16.9612 2.32586 15.2183 1.07094C13.1965 -0.393145 9.98942 1.07094 8.38578 2.39558C4.34213 5.74205 0.228756 11.5287 0.437911 17.0364C-0.259271 20.7316 -0.119836 24.7054 0.925823 27.9822C1.623 30.0737 3.64483 31.1195 5.73649 31.2589C7.82804 31.3985 12.1506 32.0258 14.033 30.771C15.9152 29.5159 16.0548 27.0758 16.2639 24.9844C16.4731 22.6837 17.1006 18.361 15.1484 16.5484C13.1963 14.8054 7.54916 16.6878 8.24635 12.7836Z" fill="#143B19"/>
</svg>
